<svg width="60" height="60" viewBox="0 0 60 60" fill="none" xmlns="http://www.w3.org/2000/svg">
<path opacity="0.5" d="M16.6667 30C16.6667 23.7146 16.6667 20.5719 18.6194 18.6193C20.572 16.6667 23.7147 16.6667 30.0001 16.6667C36.2855 16.6667 39.4282 16.6667 41.3808 18.6193C43.3334 20.5719 43.3334 23.7146 43.3334 30" stroke="#DEC7AA" stroke-width="1.5"/>
<path d="M16.6667 32.6667C16.6667 28.933 16.6667 27.0661 17.3934 25.6401C18.0325 24.3856 19.0524 23.3658 20.3068 22.7266C21.7329 22 23.5997 22 27.3334 22H32.6667C36.4004 22 38.2673 22 39.6934 22.7266C40.9478 23.3658 41.9676 24.3856 42.6068 25.6401C43.3334 27.0661 43.3334 28.933 43.3334 32.6667C43.3334 36.4004 43.3334 38.2672 42.6068 39.6933C41.9676 40.9477 40.9478 41.9676 39.6934 42.6067C38.2673 43.3333 36.4004 43.3333 32.6667 43.3333H27.3334C23.5997 43.3333 21.7329 43.3333 20.3068 42.6067C19.0524 41.9676 18.0325 40.9477 17.3934 39.6933C16.6667 38.2672 16.6667 36.4004 16.6667 32.6667Z" stroke="#DEC7AA" stroke-width="1.5"/>
<path d="M29.2499 28.6667C29.2499 28.2525 29.5857 27.9167 29.9999 27.9167C30.4141 27.9167 30.7499 28.2525 30.7499 28.6667L29.2499 28.6667ZM29.9999 36.6667L30.5856 37.1352C30.4432 37.3131 30.2278 37.4167 29.9999 37.4167C29.7721 37.4167 29.5566 37.3131 29.4143 37.1352L29.9999 36.6667ZM32.0809 32.8648C32.3397 32.5414 32.8117 32.4889 33.1351 32.7477C33.4586 33.0065 33.511 33.4784 33.2522 33.8019L32.0809 32.8648ZM26.7476 33.8019C26.4888 33.4784 26.5413 33.0065 26.8647 32.7477C27.1882 32.4889 27.6601 32.5414 27.9189 32.8648L26.7476 33.8019ZM30.7499 28.6667L30.7499 36.6667L29.2499 36.6667L29.2499 28.6667L30.7499 28.6667ZM29.4143 36.1982L32.0809 32.8648L33.2522 33.8019L30.5856 37.1352L29.4143 36.1982ZM29.4143 37.1352L26.7476 33.8019L27.9189 32.8648L30.5856 36.1982L29.4143 37.1352Z" fill="#DEC7AA"/>
<rect x="1" y="1" width="58" height="58" rx="29" stroke="#DEC7AA" stroke-width="2" stroke-dasharray="4 4"/>
</svg>
