<svg width="32" height="32" viewBox="0 0 32 32" fill="none" xmlns="http://www.w3.org/2000/svg">
<path opacity="0.5" d="M26.6663 30.0833C27.0806 30.0833 27.4163 29.7475 27.4163 29.3333C27.4163 28.919 27.0806 28.5833 26.6663 28.5833V30.0833ZM5.33301 30.0833H26.6663V28.5833H5.33301V30.0833Z" fill="#8C5D19"/>
<path d="M19.5057 3.89531L18.5171 4.88398L9.42775 13.9733C8.81211 14.5889 8.50429 14.8968 8.23957 15.2362C7.92729 15.6365 7.65955 16.0697 7.44111 16.5281C7.25592 16.9167 7.11826 17.3297 6.84294 18.1556L5.67627 21.6556L5.39109 22.5112C5.2556 22.9177 5.36139 23.3658 5.66435 23.6687C5.96731 23.9717 6.41544 24.0775 6.82191 23.942L7.67746 23.6568L11.1775 22.4901C12.0034 22.2148 12.4164 22.0772 12.805 21.892C13.2633 21.6735 13.6965 21.4058 14.0969 21.0935C14.4363 20.8288 14.7441 20.521 15.3598 19.9053L24.4491 10.816L25.4378 9.82734C27.0759 8.18926 27.0759 5.5334 25.4378 3.89531C23.7997 2.25723 21.1438 2.25723 19.5057 3.89531Z" stroke="#8C5D19" stroke-width="1.5"/>
<path opacity="0.5" d="M18.5176 4.88403C18.5176 4.88403 18.6412 6.98496 20.4949 8.83872C22.3487 10.6925 24.4496 10.8161 24.4496 10.8161M7.67794 23.6569L5.67676 21.6557" stroke="#8C5D19" stroke-width="1.5"/>
</svg>
