<svg width="60" height="60" viewBox="0 0 60 60" fill="none" xmlns="http://www.w3.org/2000/svg">
<path opacity="0.5" d="M40.6666 44.0833C41.0808 44.0833 41.4166 43.7475 41.4166 43.3333C41.4166 42.9191 41.0808 42.5833 40.6666 42.5833V44.0833ZM19.3333 44.0833H40.6666V42.5833H19.3333V44.0833Z" fill="#DEC7AA"/>
<path d="M33.506 17.8953L32.5173 18.8839L23.428 27.9732C22.8124 28.5889 22.5045 28.8967 22.2398 29.2361C21.9275 29.6365 21.6598 30.0697 21.4413 30.528C21.2562 30.9166 21.1185 31.3296 20.8432 32.1556L19.6765 35.6556L19.3913 36.5111C19.2558 36.9176 19.3616 37.3657 19.6646 37.6687C19.9676 37.9716 20.4157 38.0774 20.8221 37.9419L21.6777 37.6568L25.1777 36.4901C26.0037 36.2148 26.4167 36.0771 26.8052 35.8919C27.2636 35.6735 27.6968 35.4057 28.0972 35.0935C28.4366 34.8287 28.7444 34.5209 29.36 33.9053L38.4494 24.816L39.438 23.8273C41.0761 22.1892 41.0761 19.5333 39.438 17.8953C37.7999 16.2572 35.1441 16.2572 33.506 17.8953Z" stroke="#DEC7AA" stroke-width="1.5"/>
<path opacity="0.5" d="M32.5173 18.8841C32.5173 18.8841 32.6409 20.985 34.4947 22.8388C36.3484 24.6925 38.4494 24.8161 38.4494 24.8161M21.6777 37.6569L19.6765 35.6557" stroke="#DEC7AA" stroke-width="1.5"/>
<rect x="1" y="1" width="58" height="58" rx="29" stroke="#DEC7AA" stroke-width="2" stroke-dasharray="4 4"/>
</svg>
