<svg width="32" height="32" viewBox="0 0 32 32" fill="none" xmlns="http://www.w3.org/2000/svg">
<path opacity="0.5" d="M2.6665 16.0001C2.6665 9.71469 2.6665 6.57199 4.61913 4.61937C6.57175 2.66675 9.71444 2.66675 15.9998 2.66675C22.2852 2.66675 25.4279 2.66675 27.3805 4.61937C29.3332 6.57199 29.3332 9.71469 29.3332 16.0001" stroke="#8C5D19" stroke-width="1.5"/>
<path d="M2.6665 18.6667C2.6665 14.933 2.6665 13.0661 3.39313 11.6401C4.03228 10.3856 5.05215 9.36578 6.30657 8.72662C7.73265 8 9.59949 8 13.3332 8H18.6665C22.4002 8 24.267 8 25.6931 8.72662C26.9475 9.36578 27.9674 10.3856 28.6065 11.6401C29.3332 13.0661 29.3332 14.933 29.3332 18.6667C29.3332 22.4004 29.3332 24.2672 28.6065 25.6933C27.9674 26.9477 26.9475 27.9676 25.6931 28.6067C24.267 29.3333 22.4002 29.3333 18.6665 29.3333H13.3332C9.59949 29.3333 7.73265 29.3333 6.30657 28.6067C5.05215 27.9676 4.03228 26.9477 3.39313 25.6933C2.6665 24.2672 2.6665 22.4004 2.6665 18.6667Z" stroke="#8C5D19" stroke-width="1.5"/>
<path d="M15.2502 22.6667C15.2502 23.081 15.5859 23.4167 16.0002 23.4167C16.4144 23.4167 16.7502 23.081 16.7502 22.6667L15.2502 22.6667ZM16.0002 14.6667L16.5858 14.1982C16.4435 14.0203 16.228 13.9167 16.0002 13.9167C15.7723 13.9167 15.5568 14.0203 15.4145 14.1982L16.0002 14.6667ZM18.0812 18.4686C18.3399 18.792 18.8119 18.8445 19.1354 18.5857C19.4588 18.327 19.5112 17.855 19.2525 17.5316L18.0812 18.4686ZM12.7478 17.5316C12.4891 17.855 12.5415 18.327 12.865 18.5857C13.1884 18.8445 13.6604 18.792 13.9191 18.4686L12.7478 17.5316ZM16.7502 22.6667L16.7502 14.6667L15.2502 14.6667L15.2502 22.6667L16.7502 22.6667ZM15.4145 15.1353L18.0812 18.4686L19.2525 17.5316L16.5858 14.1982L15.4145 15.1353ZM15.4145 14.1982L12.7478 17.5316L13.9191 18.4686L16.5858 15.1353L15.4145 14.1982Z" fill="#8C5D19"/>
</svg>
