<svg width="24" height="24" viewBox="0 0 24 24" fill="none" xmlns="http://www.w3.org/2000/svg">
<path d="M16 12.75C16.4142 12.75 16.75 12.4142 16.75 12C16.75 11.5858 16.4142 11.25 16 11.25V12.75ZM8 12L7.46967 11.4697C7.17678 11.7626 7.17678 12.2374 7.46967 12.5303L8 12ZM11.5303 9.53033C11.8232 9.23744 11.8232 8.76256 11.5303 8.46967C11.2374 8.17678 10.7626 8.17678 10.4697 8.46967L11.5303 9.53033ZM10.4697 15.5303C10.7626 15.8232 11.2374 15.8232 11.5303 15.5303C11.8232 15.2374 11.8232 14.7626 11.5303 14.4697L10.4697 15.5303ZM16 11.25H8V12.75H16V11.25ZM8.53033 12.5303L11.5303 9.53033L10.4697 8.46967L7.46967 11.4697L8.53033 12.5303ZM7.46967 12.5303L10.4697 15.5303L11.5303 14.4697L8.53033 11.4697L7.46967 12.5303Z" fill="#BE8E55"/>
<path d="M2 12C2 7.28595 2 4.92893 3.46447 3.46447C4.92893 2 7.28595 2 12 2C16.714 2 19.0711 2 20.5355 3.46447C22 4.92893 22 7.28595 22 12C22 16.714 22 19.0711 20.5355 20.5355C19.0711 22 16.714 22 12 22C7.28595 22 4.92893 22 3.46447 20.5355C2 19.0711 2 16.714 2 12Z" stroke="#BE8E55" stroke-width="1.5"/>
</svg>
