<svg width="18" height="18" viewBox="0 0 18 18" fill="none" xmlns="http://www.w3.org/2000/svg">
<g clip-path="url(#clip0_37_8077)">
<path d="M1.5 9C1.5 5.46447 1.5 3.6967 2.59835 2.59835C3.6967 1.5 5.46447 1.5 9 1.5C12.5355 1.5 14.3033 1.5 15.4017 2.59835C16.5 3.6967 16.5 5.46447 16.5 9C16.5 12.5355 16.5 14.3033 15.4017 15.4017C14.3033 16.5 12.5355 16.5 9 16.5C5.46447 16.5 3.6967 16.5 2.59835 15.4017C1.5 14.3033 1.5 12.5355 1.5 9Z" stroke="#BE8E55" stroke-width="1.5"/>
<path d="M11.4053 7.65535C11.6982 7.36245 11.6982 6.88758 11.4053 6.59469C11.1124 6.30179 10.6375 6.30179 10.3447 6.59469L11.4053 7.65535ZM6.59467 10.3447C6.30178 10.6376 6.30178 11.1124 6.59467 11.4053C6.88756 11.6982 7.36244 11.6982 7.65533 11.4053L6.59467 10.3447ZM7.65531 6.59467C7.36242 6.30178 6.88755 6.30178 6.59465 6.59467C6.30176 6.88756 6.30176 7.36244 6.59465 7.65533L7.65531 6.59467ZM10.3446 11.4053C10.6375 11.6982 11.1124 11.6982 11.4053 11.4053C11.6982 11.1124 11.6982 10.6375 11.4053 10.3447L10.3446 11.4053ZM10.3447 6.59469L6.59467 10.3447L7.65533 11.4053L11.4053 7.65535L10.3447 6.59469ZM6.59465 7.65533L10.3446 11.4053L11.4053 10.3447L7.65531 6.59467L6.59465 7.65533Z" fill="#BE8E55"/>
</g>
<defs>
<clipPath id="clip0_37_8077">
<rect width="18" height="18" fill="white"/>
</clipPath>
</defs>
</svg>
