<svg width="18" height="18" viewBox="0 0 18 18" fill="none" xmlns="http://www.w3.org/2000/svg">
<g clip-path="url(#clip0_183_1965)">
<path d="M1.00612 8.81048C0.694395 9.08324 0.662805 9.55706 0.935565 9.86879C1.20833 10.1805 1.68215 10.2121 1.99388 9.93935L1.00612 8.81048ZM2.81369 8.22545L3.30757 8.78989V8.78989L2.81369 8.22545ZM5.16936 8.30389L5.69969 7.77356L5.16936 8.30389ZM8.38666 11.5212L8.91699 10.9909V10.9909L8.38666 11.5212ZM10.3098 11.6878L9.87856 11.0741V11.0741L10.3098 11.6878ZM10.5335 11.5306L10.1022 10.917L10.5335 11.5306ZM13.3324 11.699L12.8306 12.2565V12.2565L13.3324 11.699ZM15.2483 14.4324C15.5562 14.7095 16.0304 14.6845 16.3075 14.3766C16.5846 14.0688 16.5596 13.5945 16.2517 13.3174L15.2483 14.4324ZM1.99388 9.93935L3.30757 8.78989L2.31981 7.66102L1.00612 8.81048L1.99388 9.93935ZM4.63903 8.83422L7.85633 12.0515L8.91699 10.9909L5.69969 7.77356L4.63903 8.83422ZM10.741 12.3014L10.9647 12.1442L10.1022 10.917L9.87856 11.0741L10.741 12.3014ZM12.8306 12.2565L15.2483 14.4324L16.2517 13.3174L13.8341 11.1416L12.8306 12.2565ZM10.9647 12.1442C11.5368 11.7421 12.3109 11.7887 12.8306 12.2565L13.8341 11.1416C12.7945 10.206 11.2464 10.1128 10.1022 10.917L10.9647 12.1442ZM7.85633 12.0515C8.62946 12.8247 9.84649 12.9301 10.741 12.3014L9.87856 11.0741C9.58037 11.2837 9.1747 11.2486 8.91699 10.9909L7.85633 12.0515ZM3.30757 8.78989C3.69387 8.45188 4.27608 8.47126 4.63903 8.83422L5.69969 7.77356C4.77834 6.8522 3.30042 6.80299 2.31981 7.66102L3.30757 8.78989Z" fill="#BE8E55"/>
<path d="M12.75 1.5L12.2197 0.96967C12.5126 0.676777 12.9874 0.676777 13.2803 0.96967L12.75 1.5ZM13.5 8.25C13.5 8.66421 13.1642 9 12.75 9C12.3358 9 12 8.66421 12 8.25H13.5ZM15.5303 3.21967C15.8232 3.51256 15.8232 3.98744 15.5303 4.28033C15.2374 4.57322 14.7626 4.57322 14.4697 4.28033L15.5303 3.21967ZM11.0303 4.28033C10.7374 4.57322 10.2626 4.57322 9.96967 4.28033C9.67678 3.98744 9.67678 3.51256 9.96967 3.21967L11.0303 4.28033ZM13.5 1.5V8.25H12V1.5H13.5ZM13.2803 0.96967L15.5303 3.21967L14.4697 4.28033L12.2197 2.03033L13.2803 0.96967ZM13.2803 2.03033L11.0303 4.28033L9.96967 3.21967L12.2197 0.96967L13.2803 2.03033Z" fill="#BE8E55"/>
<path d="M17.25 9C17.25 8.58579 16.9142 8.25 16.5 8.25C16.0858 8.25 15.75 8.58579 15.75 9H17.25ZM9 2.25C9.41421 2.25 9.75 1.91421 9.75 1.5C9.75 1.08579 9.41421 0.75 9 0.75V2.25ZM9 15.75C7.21103 15.75 5.94475 15.7484 4.98517 15.6194C4.04716 15.4933 3.51528 15.2579 3.12868 14.8713L2.06802 15.932C2.77977 16.6437 3.68095 16.9575 4.7853 17.106C5.86806 17.2516 7.25344 17.25 9 17.25V15.75ZM0.75 9C0.75 10.7466 0.748407 12.1319 0.893982 13.2147C1.04246 14.319 1.35627 15.2202 2.06802 15.932L3.12868 14.8713C2.74208 14.4847 2.50672 13.9528 2.38061 13.0148C2.25159 12.0552 2.25 10.789 2.25 9H0.75ZM15.75 9C15.75 10.789 15.7484 12.0552 15.6194 13.0148C15.4933 13.9528 15.2579 14.4847 14.8713 14.8713L15.932 15.932C16.6437 15.2202 16.9575 14.319 17.106 13.2147C17.2516 12.1319 17.25 10.7466 17.25 9H15.75ZM9 17.25C10.7466 17.25 12.1319 17.2516 13.2147 17.106C14.319 16.9575 15.2202 16.6437 15.932 15.932L14.8713 14.8713C14.4847 15.2579 13.9528 15.4933 13.0148 15.6194C12.0552 15.7484 10.789 15.75 9 15.75V17.25ZM9 0.75C7.25344 0.75 5.86806 0.748407 4.7853 0.893982C3.68095 1.04246 2.77977 1.35627 2.06802 2.06802L3.12868 3.12868C3.51528 2.74208 4.04716 2.50672 4.98517 2.38061C5.94475 2.25159 7.21103 2.25 9 2.25V0.75ZM2.25 9C2.25 7.21103 2.25159 5.94475 2.38061 4.98517C2.50672 4.04716 2.74208 3.51528 3.12868 3.12868L2.06802 2.06802C1.35627 2.77977 1.04246 3.68095 0.893982 4.7853C0.748407 5.86806 0.75 7.25344 0.75 9H2.25Z" fill="#BE8E55"/>
</g>
<defs>
<clipPath id="clip0_183_1965">
<rect width="18" height="18" fill="white"/>
</clipPath>
</defs>
</svg>
