<svg width="32" height="32" viewBox="0 0 32 32" fill="none" xmlns="http://www.w3.org/2000/svg">
<path opacity="0.5" d="M2.66699 16.0001C2.66699 9.71469 2.66699 6.57199 4.61961 4.61937C6.57224 2.66675 9.71493 2.66675 16.0003 2.66675C22.2857 2.66675 25.4284 2.66675 27.381 4.61937C29.3337 6.57199 29.3337 9.71469 29.3337 16.0001" stroke="#8C5D19" stroke-width="1.5"/>
<path d="M2.66699 18.6667C2.66699 14.933 2.66699 13.0661 3.39362 11.6401C4.03277 10.3856 5.05264 9.36578 6.30706 8.72662C7.73313 8 9.59998 8 13.3337 8H18.667C22.4007 8 24.2675 8 25.6936 8.72662C26.948 9.36578 27.9679 10.3856 28.607 11.6401C29.3337 13.0661 29.3337 14.933 29.3337 18.6667C29.3337 22.4004 29.3337 24.2672 28.607 25.6933C27.9679 26.9477 26.948 27.9676 25.6936 28.6067C24.2675 29.3333 22.4007 29.3333 18.667 29.3333H13.3337C9.59998 29.3333 7.73313 29.3333 6.30706 28.6067C5.05264 27.9676 4.03277 26.9477 3.39362 25.6933C2.66699 24.2672 2.66699 22.4004 2.66699 18.6667Z" stroke="#8C5D19" stroke-width="1.5"/>
<path d="M15.2497 14.6667C15.2497 14.2525 15.5855 13.9167 15.9997 13.9167C16.4139 13.9167 16.7497 14.2525 16.7497 14.6667L15.2497 14.6667ZM15.9997 22.6667L16.5853 23.1353C16.443 23.3132 16.2275 23.4167 15.9997 23.4167C15.7718 23.4167 15.5564 23.3132 15.414 23.1353L15.9997 22.6667ZM18.0807 18.8649C18.3394 18.5414 18.8114 18.489 19.1349 18.7478C19.4583 19.0065 19.5107 19.4785 19.252 19.8019L18.0807 18.8649ZM12.7474 19.8019C12.4886 19.4785 12.541 19.0065 12.8645 18.7478C13.1879 18.489 13.6599 18.5414 13.9187 18.8649L12.7474 19.8019ZM16.7497 14.6667L16.7497 22.6667L15.2497 22.6667L15.2497 14.6667L16.7497 14.6667ZM15.414 22.1982L18.0807 18.8649L19.252 19.8019L16.5853 23.1353L15.414 22.1982ZM15.414 23.1353L12.7474 19.8019L13.9187 18.8649L16.5853 22.1982L15.414 23.1353Z" fill="#8C5D19"/>
</svg>
