<svg width="18" height="18" viewBox="0 0 18 18" fill="none" xmlns="http://www.w3.org/2000/svg">
<g clip-path="url(#clip0_192_2124)">
<path d="M6 8.25C5.58579 8.25 5.25 8.58579 5.25 9C5.25 9.41421 5.58579 9.75 6 9.75V8.25ZM12 9L12.5303 9.53033C12.8232 9.23744 12.8232 8.76256 12.5303 8.46967L12 9ZM10.2803 6.21967C9.98744 5.92678 9.51256 5.92678 9.21967 6.21967C8.92678 6.51256 8.92678 6.98744 9.21967 7.28033L10.2803 6.21967ZM9.21967 10.7197C8.92678 11.0126 8.92678 11.4874 9.21967 11.7803C9.51256 12.0732 9.98744 12.0732 10.2803 11.7803L9.21967 10.7197ZM6 9.75C6.00686 9.75 6.01371 9.75 6.02054 9.75C6.02737 9.75 6.03419 9.75 6.04098 9.75C6.04778 9.75 6.05455 9.75 6.06132 9.75C6.06808 9.75 6.07482 9.75 6.08155 9.75C6.08828 9.75 6.09499 9.75 6.10168 9.75C6.10837 9.75 6.11505 9.75 6.12171 9.75C6.12837 9.75 6.13501 9.75 6.14163 9.75C6.14826 9.75 6.15487 9.75 6.16146 9.75C6.16805 9.75 6.17463 9.75 6.18118 9.75C6.18774 9.75 6.19428 9.75 6.20081 9.75C6.20733 9.75 6.21384 9.75 6.22033 9.75C6.22682 9.75 6.2333 9.75 6.23976 9.75C6.24622 9.75 6.25266 9.75 6.25908 9.75C6.26551 9.75 6.27192 9.75 6.27831 9.75C6.2847 9.75 6.29108 9.75 6.29744 9.75C6.3038 9.75 6.31014 9.75 6.31647 9.75C6.3228 9.75 6.32911 9.75 6.3354 9.75C6.3417 9.75 6.34798 9.75 6.35424 9.75C6.3605 9.75 6.36675 9.75 6.37298 9.75C6.37921 9.75 6.38542 9.75 6.39162 9.75C6.39782 9.75 6.404 9.75 6.41017 9.75C6.41634 9.75 6.42249 9.75 6.42862 9.75C6.43476 9.75 6.44087 9.75 6.44698 9.75C6.45308 9.75 6.45917 9.75 6.46524 9.75C6.47131 9.75 6.47737 9.75 6.48341 9.75C6.48945 9.75 6.49547 9.75 6.50148 9.75C6.50749 9.75 6.51348 9.75 6.51946 9.75C6.52544 9.75 6.5314 9.75 6.53735 9.75C6.5433 9.75 6.54923 9.75 6.55514 9.75C6.56106 9.75 6.56696 9.75 6.57285 9.75C6.57873 9.75 6.5846 9.75 6.59046 9.75C6.59631 9.75 6.60215 9.75 6.60798 9.75C6.6138 9.75 6.61961 9.75 6.62541 9.75C6.6312 9.75 6.63698 9.75 6.64274 9.75C6.64851 9.75 6.65426 9.75 6.65999 9.75C6.66572 9.75 6.67144 9.75 6.67715 9.75C6.68285 9.75 6.68854 9.75 6.69422 9.75C6.69989 9.75 6.70555 9.75 6.7112 9.75C6.71684 9.75 6.72247 9.75 6.72809 9.75C6.7337 9.75 6.7393 9.75 6.74489 9.75C6.75048 9.75 6.75605 9.75 6.7616 9.75C6.76716 9.75 6.7727 9.75 6.77823 9.75C6.78376 9.75 6.78927 9.75 6.79477 9.75C6.80027 9.75 6.80576 9.75 6.81123 9.75C6.8167 9.75 6.82215 9.75 6.8276 9.75C6.83304 9.75 6.83846 9.75 6.84388 9.75C6.84929 9.75 6.85469 9.75 6.86007 9.75C6.86546 9.75 6.87083 9.75 6.87619 9.75C6.88154 9.75 6.88689 9.75 6.89221 9.75C6.89754 9.75 6.90286 9.75 6.90816 9.75C6.91346 9.75 6.91874 9.75 6.92402 9.75C6.92929 9.75 6.93455 9.75 6.93979 9.75C6.94504 9.75 6.95027 9.75 6.95549 9.75C6.9607 9.75 6.96591 9.75 6.9711 9.75C6.97629 9.75 6.98146 9.75 6.98663 9.75C6.99179 9.75 6.99694 9.75 7.00207 9.75C7.00721 9.75 7.01233 9.75 7.01744 9.75C7.02255 9.75 7.02764 9.75 7.03273 9.75C7.03781 9.75 7.04288 9.75 7.04793 9.75C7.05299 9.75 7.05803 9.75 7.06306 9.75C7.06808 9.75 7.0731 9.75 7.0781 9.75C7.0831 9.75 7.08809 9.75 7.09307 9.75C7.09804 9.75 7.103 9.75 7.10795 9.75C7.1129 9.75 7.11784 9.75 7.12276 9.75C7.12769 9.75 7.1326 9.75 7.13749 9.75C7.14239 9.75 7.14728 9.75 7.15215 9.75C7.15702 9.75 7.16188 9.75 7.16672 9.75C7.17157 9.75 7.1764 9.75 7.18122 9.75C7.18604 9.75 7.19085 9.75 7.19564 9.75C7.20044 9.75 7.20522 9.75 7.20999 9.75C7.21476 9.75 7.21952 9.75 7.22426 9.75C7.22901 9.75 7.23374 9.75 7.23846 9.75C7.24318 9.75 7.24788 9.75 7.25258 9.75C7.25727 9.75 7.26196 9.75 7.26663 9.75C7.2713 9.75 7.27595 9.75 7.2806 9.75C7.28524 9.75 7.28988 9.75 7.2945 9.75C7.29912 9.75 7.30373 9.75 7.30833 9.75C7.31292 9.75 7.31751 9.75 7.32208 9.75C7.32665 9.75 7.33121 9.75 7.33576 9.75C7.34031 9.75 7.34485 9.75 7.34937 9.75C7.35389 9.75 7.35841 9.75 7.36291 9.75C7.36741 9.75 7.3719 9.75 7.37637 9.75C7.38085 9.75 7.38532 9.75 7.38977 9.75C7.39422 9.75 7.39867 9.75 7.4031 9.75C7.40753 9.75 7.41194 9.75 7.41635 9.75C7.42076 9.75 7.42515 9.75 7.42954 9.75C7.43392 9.75 7.43829 9.75 7.44266 9.75C7.44702 9.75 7.45137 9.75 7.4557 9.75C7.46004 9.75 7.46437 9.75 7.46869 9.75C7.473 9.75 7.4773 9.75 7.4816 9.75C7.48589 9.75 7.49017 9.75 7.49444 9.75C7.49871 9.75 7.50297 9.75 7.50722 9.75C7.51147 9.75 7.51571 9.75 7.51993 9.75C7.52416 9.75 7.52837 9.75 7.53258 9.75C7.53678 9.75 7.54097 9.75 7.54516 9.75C7.54934 9.75 7.55351 9.75 7.55767 9.75C7.56183 9.75 7.56598 9.75 7.57012 9.75C7.57426 9.75 7.57839 9.75 7.5825 9.75C7.58662 9.75 7.59073 9.75 7.59482 9.75C7.59892 9.75 7.60301 9.75 7.60708 9.75C7.61116 9.75 7.61522 9.75 7.61927 9.75C7.62333 9.75 7.62737 9.75 7.6314 9.75C7.63544 9.75 7.63946 9.75 7.64347 9.75C7.64748 9.75 7.65149 9.75 7.65548 9.75C7.65947 9.75 7.66345 9.75 7.66742 9.75C7.67139 9.75 7.67535 9.75 7.6793 9.75C7.68325 9.75 7.68719 9.75 7.69112 9.75C7.69506 9.75 7.69898 9.75 7.70289 9.75C7.7068 9.75 7.7107 9.75 7.71459 9.75C7.71848 9.75 7.72236 9.75 7.72623 9.75C7.7301 9.75 7.73396 9.75 7.73781 9.75C7.74166 9.75 7.7455 9.75 7.74933 9.75C7.75316 9.75 7.75698 9.75 7.7608 9.75C7.76461 9.75 7.76841 9.75 7.7722 9.75C7.77599 9.75 7.77978 9.75 7.78355 9.75C7.78732 9.75 7.79109 9.75 7.79484 9.75C7.7986 9.75 7.80234 9.75 7.80608 9.75C7.80981 9.75 7.81354 9.75 7.81725 9.75C7.82097 9.75 7.82468 9.75 7.82838 9.75C7.83207 9.75 7.83576 9.75 7.83944 9.75C7.84312 9.75 7.84679 9.75 7.85045 9.75C7.85411 9.75 7.85777 9.75 7.86141 9.75C7.86505 9.75 7.86868 9.75 7.87231 9.75C7.87593 9.75 7.87955 9.75 7.88316 9.75C7.88676 9.75 7.89036 9.75 7.89395 9.75C7.89754 9.75 7.90112 9.75 7.90469 9.75C7.90826 9.75 7.91183 9.75 7.91538 9.75C7.91893 9.75 7.92248 9.75 7.92601 9.75C7.92955 9.75 7.93308 9.75 7.9366 9.75C7.94012 9.75 7.94363 9.75 7.94713 9.75C7.95063 9.75 7.95413 9.75 7.95761 9.75C7.9611 9.75 7.96457 9.75 7.96804 9.75C7.97151 9.75 7.97497 9.75 7.97842 9.75C7.98187 9.75 7.98531 9.75 7.98875 9.75C7.99218 9.75 7.99561 9.75 7.99903 9.75C8.00245 9.75 8.00586 9.75 8.00926 9.75C8.01266 9.75 8.01606 9.75 8.01944 9.75C8.02283 9.75 8.02621 9.75 8.02958 9.75C8.03295 9.75 8.03631 9.75 8.03966 9.75C8.04302 9.75 8.04636 9.75 8.0497 9.75C8.05304 9.75 8.05637 9.75 8.05969 9.75C8.06301 9.75 8.06633 9.75 8.06963 9.75C8.07294 9.75 8.07624 9.75 8.07953 9.75C8.08282 9.75 8.08611 9.75 8.08939 9.75C8.09266 9.75 8.09593 9.75 8.09919 9.75C8.10245 9.75 8.10571 9.75 8.10895 9.75C8.1122 9.75 8.11544 9.75 8.11867 9.75C8.1219 9.75 8.12513 9.75 8.12834 9.75C8.13156 9.75 8.13477 9.75 8.13797 9.75C8.14117 9.75 8.14437 9.75 8.14756 9.75C8.15074 9.75 8.15392 9.75 8.1571 9.75C8.16027 9.75 8.16344 9.75 8.1666 9.75C8.16976 9.75 8.17291 9.75 8.17605 9.75C8.1792 9.75 8.18234 9.75 8.18547 9.75C8.1886 9.75 8.19173 9.75 8.19484 9.75C8.19796 9.75 8.20107 9.75 8.20418 9.75C8.20728 9.75 8.21038 9.75 8.21347 9.75C8.21656 9.75 8.21964 9.75 8.22272 9.75C8.2258 9.75 8.22887 9.75 8.23193 9.75C8.235 9.75 8.23806 9.75 8.24111 9.75C8.24416 9.75 8.2472 9.75 8.25024 9.75C8.25328 9.75 8.25631 9.75 8.25934 9.75C8.26236 9.75 8.26538 9.75 8.26839 9.75C8.2714 9.75 8.27441 9.75 8.27741 9.75C8.28041 9.75 8.28341 9.75 8.28639 9.75C8.28938 9.75 8.29236 9.75 8.29534 9.75C8.29831 9.75 8.30128 9.75 8.30425 9.75C8.30721 9.75 8.31017 9.75 8.31312 9.75C8.31607 9.75 8.31902 9.75 8.32196 9.75C8.32489 9.75 8.32783 9.75 8.33076 9.75C8.33368 9.75 8.33661 9.75 8.33952 9.75C8.34244 9.75 8.34535 9.75 8.34825 9.75C8.35116 9.75 8.35406 9.75 8.35695 9.75C8.35984 9.75 8.36273 9.75 8.36562 9.75C8.3685 9.75 8.37137 9.75 8.37425 9.75C8.37712 9.75 8.37998 9.75 8.38284 9.75C8.3857 9.75 8.38856 9.75 8.39141 9.75C8.39426 9.75 8.3971 9.75 8.39994 9.75C8.40278 9.75 8.40561 9.75 8.40844 9.75C8.41127 9.75 8.41409 9.75 8.41691 9.75C8.41973 9.75 8.42254 9.75 8.42535 9.75C8.42816 9.75 8.43096 9.75 8.43376 9.75C8.43656 9.75 8.43935 9.75 8.44214 9.75C8.44493 9.75 8.44771 9.75 8.45049 9.75C8.45327 9.75 8.45604 9.75 8.45881 9.75C8.46158 9.75 8.46434 9.75 8.4671 9.75C8.46986 9.75 8.47261 9.75 8.47536 9.75C8.47811 9.75 8.48085 9.75 8.48359 9.75C8.48633 9.75 8.48907 9.75 8.4918 9.75C8.49453 9.75 8.49726 9.75 8.49998 9.75C8.5027 9.75 8.50542 9.75 8.50813 9.75C8.51085 9.75 8.51355 9.75 8.51626 9.75C8.51896 9.75 8.52166 9.75 8.52436 9.75C8.52706 9.75 8.52975 9.75 8.53243 9.75C8.53512 9.75 8.5378 9.75 8.54048 9.75C8.54316 9.75 8.54584 9.75 8.54851 9.75C8.55118 9.75 8.55385 9.75 8.55651 9.75C8.55917 9.75 8.56183 9.75 8.56448 9.75C8.56714 9.75 8.56979 9.75 8.57244 9.75C8.57508 9.75 8.57773 9.75 8.58037 9.75C8.58301 9.75 8.58564 9.75 8.58827 9.75C8.59091 9.75 8.59353 9.75 8.59616 9.75C8.59878 9.75 8.6014 9.75 8.60402 9.75C8.60664 9.75 8.60925 9.75 8.61186 9.75C8.61447 9.75 8.61708 9.75 8.61968 9.75C8.62228 9.75 8.62488 9.75 8.62748 9.75C8.63008 9.75 8.63267 9.75 8.63526 9.75C8.63785 9.75 8.64044 9.75 8.64302 9.75C8.6456 9.75 8.64818 9.75 8.65076 9.75C8.65333 9.75 8.65591 9.75 8.65848 9.75C8.66105 9.75 8.66362 9.75 8.66618 9.75C8.66874 9.75 8.67131 9.75 8.67386 9.75C8.67642 9.75 8.67898 9.75 8.68153 9.75C8.68408 9.75 8.68663 9.75 8.68918 9.75C8.69172 9.75 8.69427 9.75 8.69681 9.75C8.69935 9.75 8.70189 9.75 8.70442 9.75C8.70696 9.75 8.70949 9.75 8.71202 9.75C8.71455 9.75 8.71708 9.75 8.7196 9.75C8.72213 9.75 8.72465 9.75 8.72717 9.75C8.72969 9.75 8.73221 9.75 8.73472 9.75C8.73724 9.75 8.73975 9.75 8.74226 9.75C8.74477 9.75 8.74728 9.75 8.74978 9.75C8.75229 9.75 8.75479 9.75 8.75729 9.75C8.75979 9.75 8.76229 9.75 8.76479 9.75C8.76728 9.75 8.76978 9.75 8.77227 9.75C8.77476 9.75 8.77725 9.75 8.77974 9.75C8.78223 9.75 8.78471 9.75 8.7872 9.75C8.78968 9.75 8.79216 9.75 8.79464 9.75C8.79712 9.75 8.7996 9.75 8.80208 9.75C8.80455 9.75 8.80703 9.75 8.8095 9.75C8.81197 9.75 8.81445 9.75 8.81691 9.75C8.81938 9.75 8.82185 9.75 8.82432 9.75C8.82678 9.75 8.82925 9.75 8.83171 9.75C8.83417 9.75 8.83664 9.75 8.83909 9.75C8.84155 9.75 8.84401 9.75 8.84647 9.75C8.84893 9.75 8.85138 9.75 8.85384 9.75C8.85629 9.75 8.85874 9.75 8.86119 9.75C8.86365 9.75 8.8661 9.75 8.86855 9.75C8.87099 9.75 8.87344 9.75 8.87589 9.75C8.87834 9.75 8.88078 9.75 8.88323 9.75C8.88567 9.75 8.88811 9.75 8.89055 9.75C8.893 9.75 8.89544 9.75 8.89788 9.75C8.90032 9.75 8.90276 9.75 8.9052 9.75C8.90764 9.75 8.91007 9.75 8.91251 9.75C8.91495 9.75 8.91738 9.75 8.91982 9.75C8.92225 9.75 8.92469 9.75 8.92712 9.75C8.92956 9.75 8.93199 9.75 8.93442 9.75C8.93685 9.75 8.93929 9.75 8.94172 9.75C8.94415 9.75 8.94658 9.75 8.94901 9.75C8.95144 9.75 8.95387 9.75 8.9563 9.75C8.95873 9.75 8.96116 9.75 8.96359 9.75C8.96601 9.75 8.96844 9.75 8.97087 9.75C8.9733 9.75 8.97573 9.75 8.97815 9.75C8.98058 9.75 8.98301 9.75 8.98544 9.75C8.98786 9.75 8.99029 9.75 8.99272 9.75C8.99515 9.75 8.99757 9.75 9 9.75C9.00243 9.75 9.00485 9.75 9.00728 9.75C9.00971 9.75 9.01214 9.75 9.01456 9.75C9.01699 9.75 9.01942 9.75 9.02185 9.75C9.02427 9.75 9.0267 9.75 9.02913 9.75C9.03156 9.75 9.03399 9.75 9.03641 9.75C9.03884 9.75 9.04127 9.75 9.0437 9.75C9.04613 9.75 9.04856 9.75 9.05099 9.75C9.05342 9.75 9.05585 9.75 9.05828 9.75C9.06071 9.75 9.06315 9.75 9.06558 9.75C9.06801 9.75 9.07044 9.75 9.07288 9.75C9.07531 9.75 9.07775 9.75 9.08018 9.75C9.08262 9.75 9.08505 9.75 9.08749 9.75C9.08993 9.75 9.09236 9.75 9.0948 9.75C9.09724 9.75 9.09968 9.75 9.10212 9.75C9.10456 9.75 9.107 9.75 9.10945 9.75C9.11189 9.75 9.11433 9.75 9.11677 9.75C9.11922 9.75 9.12166 9.75 9.12411 9.75C9.12656 9.75 9.12901 9.75 9.13145 9.75C9.1339 9.75 9.13635 9.75 9.13881 9.75C9.14126 9.75 9.14371 9.75 9.14616 9.75C9.14862 9.75 9.15107 9.75 9.15353 9.75C9.15599 9.75 9.15845 9.75 9.16091 9.75C9.16336 9.75 9.16583 9.75 9.16829 9.75C9.17075 9.75 9.17322 9.75 9.17568 9.75C9.17815 9.75 9.18062 9.75 9.18309 9.75C9.18555 9.75 9.18803 9.75 9.1905 9.75C9.19297 9.75 9.19545 9.75 9.19792 9.75C9.2004 9.75 9.20288 9.75 9.20536 9.75C9.20784 9.75 9.21032 9.75 9.2128 9.75C9.21529 9.75 9.21777 9.75 9.22026 9.75C9.22275 9.75 9.22524 9.75 9.22773 9.75C9.23022 9.75 9.23272 9.75 9.23521 9.75C9.23771 9.75 9.24021 9.75 9.24271 9.75C9.24521 9.75 9.24771 9.75 9.25022 9.75C9.25272 9.75 9.25523 9.75 9.25774 9.75C9.26025 9.75 9.26276 9.75 9.26528 9.75C9.26779 9.75 9.27031 9.75 9.27283 9.75C9.27535 9.75 9.27787 9.75 9.2804 9.75C9.28292 9.75 9.28545 9.75 9.28798 9.75C9.29051 9.75 9.29304 9.75 9.29558 9.75C9.29811 9.75 9.30065 9.75 9.30319 9.75C9.30573 9.75 9.30828 9.75 9.31082 9.75C9.31337 9.75 9.31592 9.75 9.31847 9.75C9.32102 9.75 9.32358 9.75 9.32614 9.75C9.32869 9.75 9.33126 9.75 9.33382 9.75C9.33638 9.75 9.33895 9.75 9.34152 9.75C9.34409 9.75 9.34667 9.75 9.34924 9.75C9.35182 9.75 9.3544 9.75 9.35698 9.75C9.35956 9.75 9.36215 9.75 9.36474 9.75C9.36733 9.75 9.36992 9.75 9.37252 9.75C9.37512 9.75 9.37772 9.75 9.38032 9.75C9.38292 9.75 9.38553 9.75 9.38814 9.75C9.39075 9.75 9.39336 9.75 9.39598 9.75C9.3986 9.75 9.40122 9.75 9.40384 9.75C9.40647 9.75 9.40909 9.75 9.41173 9.75C9.41436 9.75 9.41699 9.75 9.41963 9.75C9.42227 9.75 9.42492 9.75 9.42756 9.75C9.43021 9.75 9.43286 9.75 9.43552 9.75C9.43817 9.75 9.44083 9.75 9.44349 9.75C9.44615 9.75 9.44882 9.75 9.45149 9.75C9.45416 9.75 9.45684 9.75 9.45952 9.75C9.4622 9.75 9.46488 9.75 9.46757 9.75C9.47025 9.75 9.47294 9.75 9.47564 9.75C9.47834 9.75 9.48104 9.75 9.48374 9.75C9.48645 9.75 9.48915 9.75 9.49187 9.75C9.49458 9.75 9.4973 9.75 9.50002 9.75C9.50274 9.75 9.50547 9.75 9.5082 9.75C9.51093 9.75 9.51367 9.75 9.51641 9.75C9.51915 9.75 9.52189 9.75 9.52464 9.75C9.52739 9.75 9.53014 9.75 9.5329 9.75C9.53566 9.75 9.53842 9.75 9.54119 9.75C9.54396 9.75 9.54673 9.75 9.54951 9.75C9.55229 9.75 9.55507 9.75 9.55786 9.75C9.56065 9.75 9.56344 9.75 9.56624 9.75C9.56904 9.75 9.57184 9.75 9.57465 9.75C9.57746 9.75 9.58027 9.75 9.58309 9.75C9.58591 9.75 9.58873 9.75 9.59156 9.75C9.59439 9.75 9.59722 9.75 9.60006 9.75C9.6029 9.75 9.60574 9.75 9.60859 9.75C9.61144 9.75 9.6143 9.75 9.61716 9.75C9.62002 9.75 9.62288 9.75 9.62575 9.75C9.62863 9.75 9.6315 9.75 9.63438 9.75C9.63727 9.75 9.64016 9.75 9.64305 9.75C9.64594 9.75 9.64884 9.75 9.65175 9.75C9.65465 9.75 9.65756 9.75 9.66048 9.75C9.66339 9.75 9.66632 9.75 9.66924 9.75C9.67217 9.75 9.67511 9.75 9.67804 9.75C9.68098 9.75 9.68393 9.75 9.68688 9.75C9.68983 9.75 9.69279 9.75 9.69575 9.75C9.69872 9.75 9.70169 9.75 9.70466 9.75C9.70764 9.75 9.71062 9.75 9.71361 9.75C9.71659 9.75 9.71959 9.75 9.72259 9.75C9.72559 9.75 9.7286 9.75 9.73161 9.75C9.73462 9.75 9.73764 9.75 9.74066 9.75C9.74369 9.75 9.74672 9.75 9.74976 9.75C9.7528 9.75 9.75584 9.75 9.75889 9.75C9.76194 9.75 9.765 9.75 9.76807 9.75C9.77113 9.75 9.7742 9.75 9.77728 9.75C9.78036 9.75 9.78344 9.75 9.78653 9.75C9.78962 9.75 9.79272 9.75 9.79582 9.75C9.79893 9.75 9.80204 9.75 9.80516 9.75C9.80827 9.75 9.8114 9.75 9.81453 9.75C9.81766 9.75 9.8208 9.75 9.82395 9.75C9.82709 9.75 9.83024 9.75 9.8334 9.75C9.83656 9.75 9.83973 9.75 9.8429 9.75C9.84608 9.75 9.84926 9.75 9.85244 9.75C9.85563 9.75 9.85883 9.75 9.86203 9.75C9.86523 9.75 9.86844 9.75 9.87166 9.75C9.87487 9.75 9.8781 9.75 9.88133 9.75C9.88456 9.75 9.8878 9.75 9.89105 9.75C9.89429 9.75 9.89755 9.75 9.90081 9.75C9.90407 9.75 9.90734 9.75 9.91061 9.75C9.91389 9.75 9.91718 9.75 9.92047 9.75C9.92376 9.75 9.92706 9.75 9.93037 9.75C9.93367 9.75 9.93699 9.75 9.94031 9.75C9.94363 9.75 9.94696 9.75 9.9503 9.75C9.95364 9.75 9.95698 9.75 9.96034 9.75C9.96369 9.75 9.96705 9.75 9.97042 9.75C9.97379 9.75 9.97717 9.75 9.98056 9.75C9.98394 9.75 9.98734 9.75 9.99074 9.75C9.99414 9.75 9.99755 9.75 10.001 9.75C10.0044 9.75 10.0078 9.75 10.0113 9.75C10.0147 9.75 10.0181 9.75 10.0216 9.75C10.025 9.75 10.0285 9.75 10.032 9.75C10.0354 9.75 10.0389 9.75 10.0424 9.75C10.0459 9.75 10.0494 9.75 10.0529 9.75C10.0564 9.75 10.0599 9.75 10.0634 9.75C10.0669 9.75 10.0704 9.75 10.074 9.75C10.0775 9.75 10.0811 9.75 10.0846 9.75C10.0882 9.75 10.0917 9.75 10.0953 9.75C10.0989 9.75 10.1025 9.75 10.106 9.75C10.1096 9.75 10.1132 9.75 10.1168 9.75C10.1205 9.75 10.1241 9.75 10.1277 9.75C10.1313 9.75 10.1349 9.75 10.1386 9.75C10.1422 9.75 10.1459 9.75 10.1495 9.75C10.1532 9.75 10.1569 9.75 10.1606 9.75C10.1642 9.75 10.1679 9.75 10.1716 9.75C10.1753 9.75 10.179 9.75 10.1827 9.75C10.1865 9.75 10.1902 9.75 10.1939 9.75C10.1977 9.75 10.2014 9.75 10.2052 9.75C10.2089 9.75 10.2127 9.75 10.2164 9.75C10.2202 9.75 10.224 9.75 10.2278 9.75C10.2316 9.75 10.2354 9.75 10.2392 9.75C10.243 9.75 10.2468 9.75 10.2507 9.75C10.2545 9.75 10.2583 9.75 10.2622 9.75C10.266 9.75 10.2699 9.75 10.2738 9.75C10.2776 9.75 10.2815 9.75 10.2854 9.75C10.2893 9.75 10.2932 9.75 10.2971 9.75C10.301 9.75 10.3049 9.75 10.3089 9.75C10.3128 9.75 10.3167 9.75 10.3207 9.75C10.3246 9.75 10.3286 9.75 10.3326 9.75C10.3365 9.75 10.3405 9.75 10.3445 9.75C10.3485 9.75 10.3525 9.75 10.3565 9.75C10.3605 9.75 10.3646 9.75 10.3686 9.75C10.3726 9.75 10.3767 9.75 10.3807 9.75C10.3848 9.75 10.3888 9.75 10.3929 9.75C10.397 9.75 10.4011 9.75 10.4052 9.75C10.4093 9.75 10.4134 9.75 10.4175 9.75C10.4216 9.75 10.4257 9.75 10.4299 9.75C10.434 9.75 10.4382 9.75 10.4423 9.75C10.4465 9.75 10.4507 9.75 10.4548 9.75C10.459 9.75 10.4632 9.75 10.4674 9.75C10.4716 9.75 10.4758 9.75 10.4801 9.75C10.4843 9.75 10.4885 9.75 10.4928 9.75C10.497 9.75 10.5013 9.75 10.5056 9.75C10.5098 9.75 10.5141 9.75 10.5184 9.75C10.5227 9.75 10.527 9.75 10.5313 9.75C10.5356 9.75 10.54 9.75 10.5443 9.75C10.5486 9.75 10.553 9.75 10.5573 9.75C10.5617 9.75 10.5661 9.75 10.5705 9.75C10.5748 9.75 10.5792 9.75 10.5836 9.75C10.5881 9.75 10.5925 9.75 10.5969 9.75C10.6013 9.75 10.6058 9.75 10.6102 9.75C10.6147 9.75 10.6191 9.75 10.6236 9.75C10.6281 9.75 10.6326 9.75 10.6371 9.75C10.6416 9.75 10.6461 9.75 10.6506 9.75C10.6552 9.75 10.6597 9.75 10.6642 9.75C10.6688 9.75 10.6733 9.75 10.6779 9.75C10.6825 9.75 10.6871 9.75 10.6917 9.75C10.6963 9.75 10.7009 9.75 10.7055 9.75C10.7101 9.75 10.7148 9.75 10.7194 9.75C10.724 9.75 10.7287 9.75 10.7334 9.75C10.738 9.75 10.7427 9.75 10.7474 9.75C10.7521 9.75 10.7568 9.75 10.7615 9.75C10.7663 9.75 10.771 9.75 10.7757 9.75C10.7805 9.75 10.7852 9.75 10.79 9.75C10.7948 9.75 10.7996 9.75 10.8044 9.75C10.8092 9.75 10.814 9.75 10.8188 9.75C10.8236 9.75 10.8284 9.75 10.8333 9.75C10.8381 9.75 10.843 9.75 10.8479 9.75C10.8527 9.75 10.8576 9.75 10.8625 9.75C10.8674 9.75 10.8723 9.75 10.8772 9.75C10.8822 9.75 10.8871 9.75 10.892 9.75C10.897 9.75 10.902 9.75 10.9069 9.75C10.9119 9.75 10.9169 9.75 10.9219 9.75C10.9269 9.75 10.9319 9.75 10.9369 9.75C10.942 9.75 10.947 9.75 10.9521 9.75C10.9571 9.75 10.9622 9.75 10.9673 9.75C10.9724 9.75 10.9775 9.75 10.9826 9.75C10.9877 9.75 10.9928 9.75 10.9979 9.75C11.0031 9.75 11.0082 9.75 11.0134 9.75C11.0185 9.75 11.0237 9.75 11.0289 9.75C11.0341 9.75 11.0393 9.75 11.0445 9.75C11.0497 9.75 11.055 9.75 11.0602 9.75C11.0655 9.75 11.0707 9.75 11.076 9.75C11.0813 9.75 11.0865 9.75 11.0918 9.75C11.0971 9.75 11.1025 9.75 11.1078 9.75C11.1131 9.75 11.1185 9.75 11.1238 9.75C11.1292 9.75 11.1345 9.75 11.1399 9.75C11.1453 9.75 11.1507 9.75 11.1561 9.75C11.1615 9.75 11.167 9.75 11.1724 9.75C11.1778 9.75 11.1833 9.75 11.1888 9.75C11.1942 9.75 11.1997 9.75 11.2052 9.75C11.2107 9.75 11.2162 9.75 11.2218 9.75C11.2273 9.75 11.2328 9.75 11.2384 9.75C11.244 9.75 11.2495 9.75 11.2551 9.75C11.2607 9.75 11.2663 9.75 11.2719 9.75C11.2775 9.75 11.2832 9.75 11.2888 9.75C11.2944 9.75 11.3001 9.75 11.3058 9.75C11.3115 9.75 11.3171 9.75 11.3229 9.75C11.3286 9.75 11.3343 9.75 11.34 9.75C11.3457 9.75 11.3515 9.75 11.3573 9.75C11.363 9.75 11.3688 9.75 11.3746 9.75C11.3804 9.75 11.3862 9.75 11.392 9.75C11.3978 9.75 11.4037 9.75 11.4095 9.75C11.4154 9.75 11.4213 9.75 11.4272 9.75C11.433 9.75 11.4389 9.75 11.4449 9.75C11.4508 9.75 11.4567 9.75 11.4627 9.75C11.4686 9.75 11.4746 9.75 11.4805 9.75C11.4865 9.75 11.4925 9.75 11.4985 9.75C11.5045 9.75 11.5106 9.75 11.5166 9.75C11.5226 9.75 11.5287 9.75 11.5348 9.75C11.5408 9.75 11.5469 9.75 11.553 9.75C11.5591 9.75 11.5652 9.75 11.5714 9.75C11.5775 9.75 11.5837 9.75 11.5898 9.75C11.596 9.75 11.6022 9.75 11.6084 9.75C11.6146 9.75 11.6208 9.75 11.627 9.75C11.6333 9.75 11.6395 9.75 11.6458 9.75C11.652 9.75 11.6583 9.75 11.6646 9.75C11.6709 9.75 11.6772 9.75 11.6835 9.75C11.6899 9.75 11.6962 9.75 11.7026 9.75C11.7089 9.75 11.7153 9.75 11.7217 9.75C11.7281 9.75 11.7345 9.75 11.7409 9.75C11.7473 9.75 11.7538 9.75 11.7602 9.75C11.7667 9.75 11.7732 9.75 11.7797 9.75C11.7862 9.75 11.7927 9.75 11.7992 9.75C11.8057 9.75 11.8123 9.75 11.8188 9.75C11.8254 9.75 11.8319 9.75 11.8385 9.75C11.8451 9.75 11.8517 9.75 11.8584 9.75C11.865 9.75 11.8716 9.75 11.8783 9.75C11.885 9.75 11.8916 9.75 11.8983 9.75C11.905 9.75 11.9117 9.75 11.9185 9.75C11.9252 9.75 11.9319 9.75 11.9387 9.75C11.9454 9.75 11.9522 9.75 11.959 9.75C11.9658 9.75 11.9726 9.75 11.9795 9.75C11.9863 9.75 11.9931 9.75 12 9.75V8.25C11.9931 8.25 11.9863 8.25 11.9795 8.25C11.9726 8.25 11.9658 8.25 11.959 8.25C11.9522 8.25 11.9454 8.25 11.9387 8.25C11.9319 8.25 11.9252 8.25 11.9185 8.25C11.9117 8.25 11.905 8.25 11.8983 8.25C11.8916 8.25 11.885 8.25 11.8783 8.25C11.8716 8.25 11.865 8.25 11.8584 8.25C11.8517 8.25 11.8451 8.25 11.8385 8.25C11.8319 8.25 11.8254 8.25 11.8188 8.25C11.8123 8.25 11.8057 8.25 11.7992 8.25C11.7927 8.25 11.7862 8.25 11.7797 8.25C11.7732 8.25 11.7667 8.25 11.7602 8.25C11.7538 8.25 11.7473 8.25 11.7409 8.25C11.7345 8.25 11.7281 8.25 11.7217 8.25C11.7153 8.25 11.7089 8.25 11.7026 8.25C11.6962 8.25 11.6899 8.25 11.6835 8.25C11.6772 8.25 11.6709 8.25 11.6646 8.25C11.6583 8.25 11.652 8.25 11.6458 8.25C11.6395 8.25 11.6333 8.25 11.627 8.25C11.6208 8.25 11.6146 8.25 11.6084 8.25C11.6022 8.25 11.596 8.25 11.5898 8.25C11.5837 8.25 11.5775 8.25 11.5714 8.25C11.5652 8.25 11.5591 8.25 11.553 8.25C11.5469 8.25 11.5408 8.25 11.5348 8.25C11.5287 8.25 11.5226 8.25 11.5166 8.25C11.5106 8.25 11.5045 8.25 11.4985 8.25C11.4925 8.25 11.4865 8.25 11.4805 8.25C11.4746 8.25 11.4686 8.25 11.4627 8.25C11.4567 8.25 11.4508 8.25 11.4449 8.25C11.4389 8.25 11.433 8.25 11.4272 8.25C11.4213 8.25 11.4154 8.25 11.4095 8.25C11.4037 8.25 11.3978 8.25 11.392 8.25C11.3862 8.25 11.3804 8.25 11.3746 8.25C11.3688 8.25 11.363 8.25 11.3573 8.25C11.3515 8.25 11.3457 8.25 11.34 8.25C11.3343 8.25 11.3286 8.25 11.3229 8.25C11.3171 8.25 11.3115 8.25 11.3058 8.25C11.3001 8.25 11.2944 8.25 11.2888 8.25C11.2832 8.25 11.2775 8.25 11.2719 8.25C11.2663 8.25 11.2607 8.25 11.2551 8.25C11.2495 8.25 11.244 8.25 11.2384 8.25C11.2328 8.25 11.2273 8.25 11.2218 8.25C11.2162 8.25 11.2107 8.25 11.2052 8.25C11.1997 8.25 11.1942 8.25 11.1888 8.25C11.1833 8.25 11.1778 8.25 11.1724 8.25C11.167 8.25 11.1615 8.25 11.1561 8.25C11.1507 8.25 11.1453 8.25 11.1399 8.25C11.1345 8.25 11.1292 8.25 11.1238 8.25C11.1185 8.25 11.1131 8.25 11.1078 8.25C11.1025 8.25 11.0971 8.25 11.0918 8.25C11.0865 8.25 11.0813 8.25 11.076 8.25C11.0707 8.25 11.0655 8.25 11.0602 8.25C11.055 8.25 11.0497 8.25 11.0445 8.25C11.0393 8.25 11.0341 8.25 11.0289 8.25C11.0237 8.25 11.0185 8.25 11.0134 8.25C11.0082 8.25 11.0031 8.25 10.9979 8.25C10.9928 8.25 10.9877 8.25 10.9826 8.25C10.9775 8.25 10.9724 8.25 10.9673 8.25C10.9622 8.25 10.9571 8.25 10.9521 8.25C10.947 8.25 10.942 8.25 10.9369 8.25C10.9319 8.25 10.9269 8.25 10.9219 8.25C10.9169 8.25 10.9119 8.25 10.9069 8.25C10.902 8.25 10.897 8.25 10.892 8.25C10.8871 8.25 10.8822 8.25 10.8772 8.25C10.8723 8.25 10.8674 8.25 10.8625 8.25C10.8576 8.25 10.8527 8.25 10.8479 8.25C10.843 8.25 10.8381 8.25 10.8333 8.25C10.8284 8.25 10.8236 8.25 10.8188 8.25C10.814 8.25 10.8092 8.25 10.8044 8.25C10.7996 8.25 10.7948 8.25 10.79 8.25C10.7852 8.25 10.7805 8.25 10.7757 8.25C10.771 8.25 10.7663 8.25 10.7615 8.25C10.7568 8.25 10.7521 8.25 10.7474 8.25C10.7427 8.25 10.738 8.25 10.7334 8.25C10.7287 8.25 10.724 8.25 10.7194 8.25C10.7148 8.25 10.7101 8.25 10.7055 8.25C10.7009 8.25 10.6963 8.25 10.6917 8.25C10.6871 8.25 10.6825 8.25 10.6779 8.25C10.6733 8.25 10.6688 8.25 10.6642 8.25C10.6597 8.25 10.6552 8.25 10.6506 8.25C10.6461 8.25 10.6416 8.25 10.6371 8.25C10.6326 8.25 10.6281 8.25 10.6236 8.25C10.6191 8.25 10.6147 8.25 10.6102 8.25C10.6058 8.25 10.6013 8.25 10.5969 8.25C10.5925 8.25 10.5881 8.25 10.5836 8.25C10.5792 8.25 10.5748 8.25 10.5705 8.25C10.5661 8.25 10.5617 8.25 10.5573 8.25C10.553 8.25 10.5486 8.25 10.5443 8.25C10.54 8.25 10.5356 8.25 10.5313 8.25C10.527 8.25 10.5227 8.25 10.5184 8.25C10.5141 8.25 10.5098 8.25 10.5056 8.25C10.5013 8.25 10.497 8.25 10.4928 8.25C10.4885 8.25 10.4843 8.25 10.4801 8.25C10.4758 8.25 10.4716 8.25 10.4674 8.25C10.4632 8.25 10.459 8.25 10.4548 8.25C10.4507 8.25 10.4465 8.25 10.4423 8.25C10.4382 8.25 10.434 8.25 10.4299 8.25C10.4257 8.25 10.4216 8.25 10.4175 8.25C10.4134 8.25 10.4093 8.25 10.4052 8.25C10.4011 8.25 10.397 8.25 10.3929 8.25C10.3888 8.25 10.3848 8.25 10.3807 8.25C10.3767 8.25 10.3726 8.25 10.3686 8.25C10.3646 8.25 10.3605 8.25 10.3565 8.25C10.3525 8.25 10.3485 8.25 10.3445 8.25C10.3405 8.25 10.3365 8.25 10.3326 8.25C10.3286 8.25 10.3246 8.25 10.3207 8.25C10.3167 8.25 10.3128 8.25 10.3089 8.25C10.3049 8.25 10.301 8.25 10.2971 8.25C10.2932 8.25 10.2893 8.25 10.2854 8.25C10.2815 8.25 10.2776 8.25 10.2738 8.25C10.2699 8.25 10.266 8.25 10.2622 8.25C10.2583 8.25 10.2545 8.25 10.2507 8.25C10.2468 8.25 10.243 8.25 10.2392 8.25C10.2354 8.25 10.2316 8.25 10.2278 8.25C10.224 8.25 10.2202 8.25 10.2164 8.25C10.2127 8.25 10.2089 8.25 10.2052 8.25C10.2014 8.25 10.1977 8.25 10.1939 8.25C10.1902 8.25 10.1865 8.25 10.1827 8.25C10.179 8.25 10.1753 8.25 10.1716 8.25C10.1679 8.25 10.1642 8.25 10.1606 8.25C10.1569 8.25 10.1532 8.25 10.1495 8.25C10.1459 8.25 10.1422 8.25 10.1386 8.25C10.1349 8.25 10.1313 8.25 10.1277 8.25C10.1241 8.25 10.1205 8.25 10.1168 8.25C10.1132 8.25 10.1096 8.25 10.106 8.25C10.1025 8.25 10.0989 8.25 10.0953 8.25C10.0917 8.25 10.0882 8.25 10.0846 8.25C10.0811 8.25 10.0775 8.25 10.074 8.25C10.0704 8.25 10.0669 8.25 10.0634 8.25C10.0599 8.25 10.0564 8.25 10.0529 8.25C10.0494 8.25 10.0459 8.25 10.0424 8.25C10.0389 8.25 10.0354 8.25 10.032 8.25C10.0285 8.25 10.025 8.25 10.0216 8.25C10.0181 8.25 10.0147 8.25 10.0113 8.25C10.0078 8.25 10.0044 8.25 10.001 8.25C9.99755 8.25 9.99414 8.25 9.99074 8.25C9.98734 8.25 9.98394 8.25 9.98056 8.25C9.97717 8.25 9.97379 8.25 9.97042 8.25C9.96705 8.25 9.96369 8.25 9.96034 8.25C9.95698 8.25 9.95364 8.25 9.9503 8.25C9.94696 8.25 9.94363 8.25 9.94031 8.25C9.93699 8.25 9.93367 8.25 9.93037 8.25C9.92706 8.25 9.92376 8.25 9.92047 8.25C9.91718 8.25 9.91389 8.25 9.91061 8.25C9.90734 8.25 9.90407 8.25 9.90081 8.25C9.89755 8.25 9.89429 8.25 9.89105 8.25C9.8878 8.25 9.88456 8.25 9.88133 8.25C9.8781 8.25 9.87487 8.25 9.87166 8.25C9.86844 8.25 9.86523 8.25 9.86203 8.25C9.85883 8.25 9.85563 8.25 9.85244 8.25C9.84926 8.25 9.84608 8.25 9.8429 8.25C9.83973 8.25 9.83656 8.25 9.8334 8.25C9.83024 8.25 9.82709 8.25 9.82395 8.25C9.8208 8.25 9.81766 8.25 9.81453 8.25C9.8114 8.25 9.80827 8.25 9.80516 8.25C9.80204 8.25 9.79893 8.25 9.79582 8.25C9.79272 8.25 9.78962 8.25 9.78653 8.25C9.78344 8.25 9.78036 8.25 9.77728 8.25C9.7742 8.25 9.77113 8.25 9.76807 8.25C9.765 8.25 9.76194 8.25 9.75889 8.25C9.75584 8.25 9.7528 8.25 9.74976 8.25C9.74672 8.25 9.74369 8.25 9.74066 8.25C9.73764 8.25 9.73462 8.25 9.73161 8.25C9.7286 8.25 9.72559 8.25 9.72259 8.25C9.71959 8.25 9.71659 8.25 9.71361 8.25C9.71062 8.25 9.70764 8.25 9.70466 8.25C9.70169 8.25 9.69872 8.25 9.69575 8.25C9.69279 8.25 9.68983 8.25 9.68688 8.25C9.68393 8.25 9.68098 8.25 9.67804 8.25C9.67511 8.25 9.67217 8.25 9.66924 8.25C9.66632 8.25 9.66339 8.25 9.66048 8.25C9.65756 8.25 9.65465 8.25 9.65175 8.25C9.64884 8.25 9.64594 8.25 9.64305 8.25C9.64016 8.25 9.63727 8.25 9.63438 8.25C9.6315 8.25 9.62863 8.25 9.62575 8.25C9.62288 8.25 9.62002 8.25 9.61716 8.25C9.6143 8.25 9.61144 8.25 9.60859 8.25C9.60574 8.25 9.6029 8.25 9.60006 8.25C9.59722 8.25 9.59439 8.25 9.59156 8.25C9.58873 8.25 9.58591 8.25 9.58309 8.25C9.58027 8.25 9.57746 8.25 9.57465 8.25C9.57184 8.25 9.56904 8.25 9.56624 8.25C9.56344 8.25 9.56065 8.25 9.55786 8.25C9.55507 8.25 9.55229 8.25 9.54951 8.25C9.54673 8.25 9.54396 8.25 9.54119 8.25C9.53842 8.25 9.53566 8.25 9.5329 8.25C9.53014 8.25 9.52739 8.25 9.52464 8.25C9.52189 8.25 9.51915 8.25 9.51641 8.25C9.51367 8.25 9.51093 8.25 9.5082 8.25C9.50547 8.25 9.50274 8.25 9.50002 8.25C9.4973 8.25 9.49458 8.25 9.49187 8.25C9.48915 8.25 9.48645 8.25 9.48374 8.25C9.48104 8.25 9.47834 8.25 9.47564 8.25C9.47294 8.25 9.47025 8.25 9.46757 8.25C9.46488 8.25 9.4622 8.25 9.45952 8.25C9.45684 8.25 9.45416 8.25 9.45149 8.25C9.44882 8.25 9.44615 8.25 9.44349 8.25C9.44083 8.25 9.43817 8.25 9.43552 8.25C9.43286 8.25 9.43021 8.25 9.42756 8.25C9.42492 8.25 9.42227 8.25 9.41963 8.25C9.41699 8.25 9.41436 8.25 9.41173 8.25C9.40909 8.25 9.40647 8.25 9.40384 8.25C9.40122 8.25 9.3986 8.25 9.39598 8.25C9.39336 8.25 9.39075 8.25 9.38814 8.25C9.38553 8.25 9.38292 8.25 9.38032 8.25C9.37772 8.25 9.37512 8.25 9.37252 8.25C9.36992 8.25 9.36733 8.25 9.36474 8.25C9.36215 8.25 9.35956 8.25 9.35698 8.25C9.3544 8.25 9.35182 8.25 9.34924 8.25C9.34667 8.25 9.34409 8.25 9.34152 8.25C9.33895 8.25 9.33638 8.25 9.33382 8.25C9.33126 8.25 9.32869 8.25 9.32614 8.25C9.32358 8.25 9.32102 8.25 9.31847 8.25C9.31592 8.25 9.31337 8.25 9.31082 8.25C9.30828 8.25 9.30573 8.25 9.30319 8.25C9.30065 8.25 9.29811 8.25 9.29558 8.25C9.29304 8.25 9.29051 8.25 9.28798 8.25C9.28545 8.25 9.28292 8.25 9.2804 8.25C9.27787 8.25 9.27535 8.25 9.27283 8.25C9.27031 8.25 9.26779 8.25 9.26528 8.25C9.26276 8.25 9.26025 8.25 9.25774 8.25C9.25523 8.25 9.25272 8.25 9.25022 8.25C9.24771 8.25 9.24521 8.25 9.24271 8.25C9.24021 8.25 9.23771 8.25 9.23521 8.25C9.23272 8.25 9.23022 8.25 9.22773 8.25C9.22524 8.25 9.22275 8.25 9.22026 8.25C9.21777 8.25 9.21529 8.25 9.2128 8.25C9.21032 8.25 9.20784 8.25 9.20536 8.25C9.20288 8.25 9.2004 8.25 9.19792 8.25C9.19545 8.25 9.19297 8.25 9.1905 8.25C9.18803 8.25 9.18555 8.25 9.18309 8.25C9.18062 8.25 9.17815 8.25 9.17568 8.25C9.17322 8.25 9.17075 8.25 9.16829 8.25C9.16583 8.25 9.16336 8.25 9.16091 8.25C9.15845 8.25 9.15599 8.25 9.15353 8.25C9.15107 8.25 9.14862 8.25 9.14616 8.25C9.14371 8.25 9.14126 8.25 9.13881 8.25C9.13635 8.25 9.1339 8.25 9.13145 8.25C9.12901 8.25 9.12656 8.25 9.12411 8.25C9.12166 8.25 9.11922 8.25 9.11677 8.25C9.11433 8.25 9.11189 8.25 9.10945 8.25C9.107 8.25 9.10456 8.25 9.10212 8.25C9.09968 8.25 9.09724 8.25 9.0948 8.25C9.09236 8.25 9.08993 8.25 9.08749 8.25C9.08505 8.25 9.08262 8.25 9.08018 8.25C9.07775 8.25 9.07531 8.25 9.07288 8.25C9.07044 8.25 9.06801 8.25 9.06558 8.25C9.06315 8.25 9.06071 8.25 9.05828 8.25C9.05585 8.25 9.05342 8.25 9.05099 8.25C9.04856 8.25 9.04613 8.25 9.0437 8.25C9.04127 8.25 9.03884 8.25 9.03641 8.25C9.03399 8.25 9.03156 8.25 9.02913 8.25C9.0267 8.25 9.02427 8.25 9.02185 8.25C9.01942 8.25 9.01699 8.25 9.01456 8.25C9.01214 8.25 9.00971 8.25 9.00728 8.25C9.00485 8.25 9.00243 8.25 9 8.25C8.99757 8.25 8.99515 8.25 8.99272 8.25C8.99029 8.25 8.98786 8.25 8.98544 8.25C8.98301 8.25 8.98058 8.25 8.97815 8.25C8.97573 8.25 8.9733 8.25 8.97087 8.25C8.96844 8.25 8.96601 8.25 8.96359 8.25C8.96116 8.25 8.95873 8.25 8.9563 8.25C8.95387 8.25 8.95144 8.25 8.94901 8.25C8.94658 8.25 8.94415 8.25 8.94172 8.25C8.93929 8.25 8.93685 8.25 8.93442 8.25C8.93199 8.25 8.92956 8.25 8.92712 8.25C8.92469 8.25 8.92225 8.25 8.91982 8.25C8.91738 8.25 8.91495 8.25 8.91251 8.25C8.91007 8.25 8.90764 8.25 8.9052 8.25C8.90276 8.25 8.90032 8.25 8.89788 8.25C8.89544 8.25 8.893 8.25 8.89055 8.25C8.88811 8.25 8.88567 8.25 8.88323 8.25C8.88078 8.25 8.87834 8.25 8.87589 8.25C8.87344 8.25 8.87099 8.25 8.86855 8.25C8.8661 8.25 8.86365 8.25 8.86119 8.25C8.85874 8.25 8.85629 8.25 8.85384 8.25C8.85138 8.25 8.84893 8.25 8.84647 8.25C8.84401 8.25 8.84155 8.25 8.83909 8.25C8.83664 8.25 8.83417 8.25 8.83171 8.25C8.82925 8.25 8.82678 8.25 8.82432 8.25C8.82185 8.25 8.81938 8.25 8.81691 8.25C8.81445 8.25 8.81197 8.25 8.8095 8.25C8.80703 8.25 8.80455 8.25 8.80208 8.25C8.7996 8.25 8.79712 8.25 8.79464 8.25C8.79216 8.25 8.78968 8.25 8.7872 8.25C8.78471 8.25 8.78223 8.25 8.77974 8.25C8.77725 8.25 8.77476 8.25 8.77227 8.25C8.76978 8.25 8.76728 8.25 8.76479 8.25C8.76229 8.25 8.75979 8.25 8.75729 8.25C8.75479 8.25 8.75229 8.25 8.74978 8.25C8.74728 8.25 8.74477 8.25 8.74226 8.25C8.73975 8.25 8.73724 8.25 8.73472 8.25C8.73221 8.25 8.72969 8.25 8.72717 8.25C8.72465 8.25 8.72213 8.25 8.7196 8.25C8.71708 8.25 8.71455 8.25 8.71202 8.25C8.70949 8.25 8.70696 8.25 8.70442 8.25C8.70189 8.25 8.69935 8.25 8.69681 8.25C8.69427 8.25 8.69172 8.25 8.68918 8.25C8.68663 8.25 8.68408 8.25 8.68153 8.25C8.67898 8.25 8.67642 8.25 8.67386 8.25C8.67131 8.25 8.66874 8.25 8.66618 8.25C8.66362 8.25 8.66105 8.25 8.65848 8.25C8.65591 8.25 8.65333 8.25 8.65076 8.25C8.64818 8.25 8.6456 8.25 8.64302 8.25C8.64044 8.25 8.63785 8.25 8.63526 8.25C8.63267 8.25 8.63008 8.25 8.62748 8.25C8.62488 8.25 8.62228 8.25 8.61968 8.25C8.61708 8.25 8.61447 8.25 8.61186 8.25C8.60925 8.25 8.60664 8.25 8.60402 8.25C8.6014 8.25 8.59878 8.25 8.59616 8.25C8.59353 8.25 8.59091 8.25 8.58827 8.25C8.58564 8.25 8.58301 8.25 8.58037 8.25C8.57773 8.25 8.57508 8.25 8.57244 8.25C8.56979 8.25 8.56714 8.25 8.56448 8.25C8.56183 8.25 8.55917 8.25 8.55651 8.25C8.55385 8.25 8.55118 8.25 8.54851 8.25C8.54584 8.25 8.54316 8.25 8.54048 8.25C8.5378 8.25 8.53512 8.25 8.53243 8.25C8.52975 8.25 8.52706 8.25 8.52436 8.25C8.52166 8.25 8.51896 8.25 8.51626 8.25C8.51355 8.25 8.51085 8.25 8.50813 8.25C8.50542 8.25 8.5027 8.25 8.49998 8.25C8.49726 8.25 8.49453 8.25 8.4918 8.25C8.48907 8.25 8.48633 8.25 8.48359 8.25C8.48085 8.25 8.47811 8.25 8.47536 8.25C8.47261 8.25 8.46986 8.25 8.4671 8.25C8.46434 8.25 8.46158 8.25 8.45881 8.25C8.45604 8.25 8.45327 8.25 8.45049 8.25C8.44771 8.25 8.44493 8.25 8.44214 8.25C8.43935 8.25 8.43656 8.25 8.43376 8.25C8.43096 8.25 8.42816 8.25 8.42535 8.25C8.42254 8.25 8.41973 8.25 8.41691 8.25C8.41409 8.25 8.41127 8.25 8.40844 8.25C8.40561 8.25 8.40278 8.25 8.39994 8.25C8.3971 8.25 8.39426 8.25 8.39141 8.25C8.38856 8.25 8.3857 8.25 8.38284 8.25C8.37998 8.25 8.37712 8.25 8.37425 8.25C8.37137 8.25 8.3685 8.25 8.36562 8.25C8.36273 8.25 8.35984 8.25 8.35695 8.25C8.35406 8.25 8.35116 8.25 8.34825 8.25C8.34535 8.25 8.34244 8.25 8.33952 8.25C8.33661 8.25 8.33368 8.25 8.33076 8.25C8.32783 8.25 8.32489 8.25 8.32196 8.25C8.31902 8.25 8.31607 8.25 8.31312 8.25C8.31017 8.25 8.30721 8.25 8.30425 8.25C8.30128 8.25 8.29831 8.25 8.29534 8.25C8.29236 8.25 8.28938 8.25 8.28639 8.25C8.28341 8.25 8.28041 8.25 8.27741 8.25C8.27441 8.25 8.2714 8.25 8.26839 8.25C8.26538 8.25 8.26236 8.25 8.25934 8.25C8.25631 8.25 8.25328 8.25 8.25024 8.25C8.2472 8.25 8.24416 8.25 8.24111 8.25C8.23806 8.25 8.235 8.25 8.23193 8.25C8.22887 8.25 8.2258 8.25 8.22272 8.25C8.21964 8.25 8.21656 8.25 8.21347 8.25C8.21038 8.25 8.20728 8.25 8.20418 8.25C8.20107 8.25 8.19796 8.25 8.19484 8.25C8.19173 8.25 8.1886 8.25 8.18547 8.25C8.18234 8.25 8.1792 8.25 8.17605 8.25C8.17291 8.25 8.16976 8.25 8.1666 8.25C8.16344 8.25 8.16027 8.25 8.1571 8.25C8.15392 8.25 8.15074 8.25 8.14756 8.25C8.14437 8.25 8.14117 8.25 8.13797 8.25C8.13477 8.25 8.13156 8.25 8.12834 8.25C8.12513 8.25 8.1219 8.25 8.11867 8.25C8.11544 8.25 8.1122 8.25 8.10895 8.25C8.10571 8.25 8.10245 8.25 8.09919 8.25C8.09593 8.25 8.09266 8.25 8.08939 8.25C8.08611 8.25 8.08282 8.25 8.07953 8.25C8.07624 8.25 8.07294 8.25 8.06963 8.25C8.06633 8.25 8.06301 8.25 8.05969 8.25C8.05637 8.25 8.05304 8.25 8.0497 8.25C8.04636 8.25 8.04302 8.25 8.03966 8.25C8.03631 8.25 8.03295 8.25 8.02958 8.25C8.02621 8.25 8.02283 8.25 8.01944 8.25C8.01606 8.25 8.01266 8.25 8.00926 8.25C8.00586 8.25 8.00245 8.25 7.99903 8.25C7.99561 8.25 7.99218 8.25 7.98875 8.25C7.98531 8.25 7.98187 8.25 7.97842 8.25C7.97497 8.25 7.97151 8.25 7.96804 8.25C7.96457 8.25 7.9611 8.25 7.95761 8.25C7.95413 8.25 7.95063 8.25 7.94713 8.25C7.94363 8.25 7.94012 8.25 7.9366 8.25C7.93308 8.25 7.92955 8.25 7.92601 8.25C7.92248 8.25 7.91893 8.25 7.91538 8.25C7.91183 8.25 7.90826 8.25 7.90469 8.25C7.90112 8.25 7.89754 8.25 7.89395 8.25C7.89036 8.25 7.88676 8.25 7.88316 8.25C7.87955 8.25 7.87593 8.25 7.87231 8.25C7.86868 8.25 7.86505 8.25 7.86141 8.25C7.85777 8.25 7.85411 8.25 7.85045 8.25C7.84679 8.25 7.84312 8.25 7.83944 8.25C7.83576 8.25 7.83207 8.25 7.82838 8.25C7.82468 8.25 7.82097 8.25 7.81725 8.25C7.81354 8.25 7.80981 8.25 7.80608 8.25C7.80234 8.25 7.7986 8.25 7.79484 8.25C7.79109 8.25 7.78732 8.25 7.78355 8.25C7.77978 8.25 7.77599 8.25 7.7722 8.25C7.76841 8.25 7.76461 8.25 7.7608 8.25C7.75698 8.25 7.75316 8.25 7.74933 8.25C7.7455 8.25 7.74166 8.25 7.73781 8.25C7.73396 8.25 7.7301 8.25 7.72623 8.25C7.72236 8.25 7.71848 8.25 7.71459 8.25C7.7107 8.25 7.7068 8.25 7.70289 8.25C7.69898 8.25 7.69506 8.25 7.69112 8.25C7.68719 8.25 7.68325 8.25 7.6793 8.25C7.67535 8.25 7.67139 8.25 7.66742 8.25C7.66345 8.25 7.65947 8.25 7.65548 8.25C7.65149 8.25 7.64748 8.25 7.64347 8.25C7.63946 8.25 7.63544 8.25 7.6314 8.25C7.62737 8.25 7.62333 8.25 7.61927 8.25C7.61522 8.25 7.61116 8.25 7.60708 8.25C7.60301 8.25 7.59892 8.25 7.59482 8.25C7.59073 8.25 7.58662 8.25 7.5825 8.25C7.57839 8.25 7.57426 8.25 7.57012 8.25C7.56598 8.25 7.56183 8.25 7.55767 8.25C7.55351 8.25 7.54934 8.25 7.54516 8.25C7.54097 8.25 7.53678 8.25 7.53258 8.25C7.52837 8.25 7.52416 8.25 7.51993 8.25C7.51571 8.25 7.51147 8.25 7.50722 8.25C7.50297 8.25 7.49871 8.25 7.49444 8.25C7.49017 8.25 7.48589 8.25 7.4816 8.25C7.4773 8.25 7.473 8.25 7.46869 8.25C7.46437 8.25 7.46004 8.25 7.4557 8.25C7.45137 8.25 7.44702 8.25 7.44266 8.25C7.43829 8.25 7.43392 8.25 7.42954 8.25C7.42515 8.25 7.42076 8.25 7.41635 8.25C7.41194 8.25 7.40753 8.25 7.4031 8.25C7.39867 8.25 7.39422 8.25 7.38977 8.25C7.38532 8.25 7.38085 8.25 7.37637 8.25C7.3719 8.25 7.36741 8.25 7.36291 8.25C7.35841 8.25 7.35389 8.25 7.34937 8.25C7.34485 8.25 7.34031 8.25 7.33576 8.25C7.33121 8.25 7.32665 8.25 7.32208 8.25C7.31751 8.25 7.31292 8.25 7.30833 8.25C7.30373 8.25 7.29912 8.25 7.2945 8.25C7.28988 8.25 7.28524 8.25 7.2806 8.25C7.27595 8.25 7.2713 8.25 7.26663 8.25C7.26196 8.25 7.25727 8.25 7.25258 8.25C7.24788 8.25 7.24318 8.25 7.23846 8.25C7.23374 8.25 7.22901 8.25 7.22426 8.25C7.21952 8.25 7.21476 8.25 7.20999 8.25C7.20522 8.25 7.20044 8.25 7.19564 8.25C7.19085 8.25 7.18604 8.25 7.18122 8.25C7.1764 8.25 7.17157 8.25 7.16672 8.25C7.16188 8.25 7.15702 8.25 7.15215 8.25C7.14728 8.25 7.14239 8.25 7.13749 8.25C7.1326 8.25 7.12769 8.25 7.12276 8.25C7.11784 8.25 7.1129 8.25 7.10795 8.25C7.103 8.25 7.09804 8.25 7.09307 8.25C7.08809 8.25 7.0831 8.25 7.0781 8.25C7.0731 8.25 7.06808 8.25 7.06306 8.25C7.05803 8.25 7.05299 8.25 7.04793 8.25C7.04288 8.25 7.03781 8.25 7.03273 8.25C7.02764 8.25 7.02255 8.25 7.01744 8.25C7.01233 8.25 7.00721 8.25 7.00207 8.25C6.99694 8.25 6.99179 8.25 6.98663 8.25C6.98146 8.25 6.97629 8.25 6.9711 8.25C6.96591 8.25 6.9607 8.25 6.95549 8.25C6.95027 8.25 6.94504 8.25 6.93979 8.25C6.93455 8.25 6.92929 8.25 6.92402 8.25C6.91874 8.25 6.91346 8.25 6.90816 8.25C6.90286 8.25 6.89754 8.25 6.89221 8.25C6.88689 8.25 6.88154 8.25 6.87619 8.25C6.87083 8.25 6.86546 8.25 6.86007 8.25C6.85469 8.25 6.84929 8.25 6.84388 8.25C6.83846 8.25 6.83304 8.25 6.8276 8.25C6.82215 8.25 6.8167 8.25 6.81123 8.25C6.80576 8.25 6.80027 8.25 6.79477 8.25C6.78927 8.25 6.78376 8.25 6.77823 8.25C6.7727 8.25 6.76716 8.25 6.7616 8.25C6.75605 8.25 6.75048 8.25 6.74489 8.25C6.7393 8.25 6.7337 8.25 6.72809 8.25C6.72247 8.25 6.71684 8.25 6.7112 8.25C6.70555 8.25 6.69989 8.25 6.69422 8.25C6.68854 8.25 6.68285 8.25 6.67715 8.25C6.67144 8.25 6.66572 8.25 6.65999 8.25C6.65426 8.25 6.64851 8.25 6.64274 8.25C6.63698 8.25 6.6312 8.25 6.62541 8.25C6.61961 8.25 6.6138 8.25 6.60798 8.25C6.60215 8.25 6.59631 8.25 6.59046 8.25C6.5846 8.25 6.57873 8.25 6.57285 8.25C6.56696 8.25 6.56106 8.25 6.55514 8.25C6.54923 8.25 6.5433 8.25 6.53735 8.25C6.5314 8.25 6.52544 8.25 6.51946 8.25C6.51348 8.25 6.50749 8.25 6.50148 8.25C6.49547 8.25 6.48945 8.25 6.48341 8.25C6.47737 8.25 6.47131 8.25 6.46524 8.25C6.45917 8.25 6.45308 8.25 6.44698 8.25C6.44087 8.25 6.43476 8.25 6.42862 8.25C6.42249 8.25 6.41634 8.25 6.41017 8.25C6.404 8.25 6.39782 8.25 6.39162 8.25C6.38542 8.25 6.37921 8.25 6.37298 8.25C6.36675 8.25 6.3605 8.25 6.35424 8.25C6.34798 8.25 6.3417 8.25 6.3354 8.25C6.32911 8.25 6.3228 8.25 6.31647 8.25C6.31014 8.25 6.3038 8.25 6.29744 8.25C6.29108 8.25 6.2847 8.25 6.27831 8.25C6.27192 8.25 6.26551 8.25 6.25908 8.25C6.25266 8.25 6.24622 8.25 6.23976 8.25C6.2333 8.25 6.22682 8.25 6.22033 8.25C6.21384 8.25 6.20733 8.25 6.20081 8.25C6.19428 8.25 6.18774 8.25 6.18118 8.25C6.17463 8.25 6.16805 8.25 6.16146 8.25C6.15487 8.25 6.14826 8.25 6.14163 8.25C6.13501 8.25 6.12837 8.25 6.12171 8.25C6.11505 8.25 6.10837 8.25 6.10168 8.25C6.09499 8.25 6.08828 8.25 6.08155 8.25C6.07482 8.25 6.06808 8.25 6.06132 8.25C6.05455 8.25 6.04778 8.25 6.04098 8.25C6.03419 8.25 6.02737 8.25 6.02054 8.25C6.01371 8.25 6.00686 8.25 6 8.25V9.75ZM12.5303 8.46967L10.2803 6.21967L9.21967 7.28033L11.4697 9.53033L12.5303 8.46967ZM11.4697 8.46967L9.21967 10.7197L10.2803 11.7803L12.5303 9.53033L11.4697 8.46967Z" fill="#BE8E55"/>
<path d="M1.5 9C1.5 5.46447 1.5 3.6967 2.59835 2.59835C3.6967 1.5 5.46447 1.5 9 1.5C12.5355 1.5 14.3033 1.5 15.4017 2.59835C16.5 3.6967 16.5 5.46447 16.5 9C16.5 12.5355 16.5 14.3033 15.4017 15.4017C14.3033 16.5 12.5355 16.5 9 16.5C5.46447 16.5 3.6967 16.5 2.59835 15.4017C1.5 14.3033 1.5 12.5355 1.5 9Z" stroke="#BE8E55" stroke-width="1.5"/>
</g>
<defs>
<clipPath id="clip0_192_2124">
<rect width="18" height="18" fill="white"/>
</clipPath>
</defs>
</svg>
